HIERARCHY
ROOT Hips
{
	OFFSET -0.241770227768 -22.6432631704 2.48129553869
	CHANNELS 6 Xposition Yposition Zposition Zrotation Yrotation Xrotation
	JOINT LeftHip
	{
		OFFSET 6.61529213806 -9.00269624267 -0.755383830355
		CHANNELS 3 Zrotation Yrotation Xrotation
		JOINT LeftKnee
		{
			OFFSET 3.63948959904 -37.4768889521 -0.156133020755
			CHANNELS 3 Zrotation Yrotation Xrotation
			JOINT LeftFoot
			{
				OFFSET -1.42168193263 -39.5809675639 -4.19291319097
				CHANNELS 3 Zrotation Yrotation Xrotation
				End LeftToe
				{
                                  OFFSET 2.73179371284 -5.51787355439 11.9493298741
				}
			}
		}
	}
	JOINT RightHip
	{
		OFFSET -6.44935690218 -8.89514264778 -0.567752646718
		CHANNELS 3 Zrotation Yrotation Xrotation
		JOINT RightKnee
		{
			OFFSET -3.93925653332 -38.2049210975 -0.671554949206
			CHANNELS 3 Zrotation Yrotation Xrotation
			JOINT RightFoot
			{
				OFFSET 1.63667374423 -39.6058889168 -4.04479379351
				CHANNELS 3 Zrotation Yrotation Xrotation
				End RightToe
				{
                                        OFFSET -2.51372673426 -4.8141674474 12.3652621475
				}
			}
		}
	}
	JOINT Waist
	{
		OFFSET -0.260657511278 10.8805780363 -2.58102795787
		CHANNELS 3 Zrotation Yrotation Xrotation
		JOINT Spine
		{
			OFFSET 0.645579152613 13.870338312 0.394053992214
			CHANNELS 3 Zrotation Yrotation Xrotation
                        JOINT Chest
                        {
                            OFFSET 0.126826606478 5.40685454507 2.25671040606
                            CHANNELS 3 Zrotation Yrotation Xrotation
                            JOINT Neck
                            {
                                OFFSET -0.35030288191 21.2565314294 -3.81856859768
                                CHANNELS 3 Zrotation Yrotation Xrotation
                                End Head
                                {
                                        OFFSET 0.140128695769 26.8269379178 1.97691534084
                                }
                            }
                            JOINT LeftInnerShoulder
                            {
                                OFFSET 7.90918734363 12.0961741138 -3.10704562868
                                CHANNELS 3 Zrotation Yrotation Xrotation
                                JOINT LeftShoulder
                                {
                                        OFFSET 9.29717020297 2.95534833898 -0.894998199109
                                        CHANNELS 3 Zrotation Yrotation Xrotation
                                        JOINT LeftElbow
                                        {
                                                OFFSET 25.9243246402 -1.2960570333 -2.59637192883
                                                CHANNELS 3 Zrotation Yrotation Xrotation
                                                End LeftWrist
                                                {
                                                        OFFSET 24.9562993322 0.8377403849 -0.213508294653
                                                }
                                        }
                                }
                            }
                            JOINT RightInnerShoulder
                            {
                                OFFSET -8.27652967032 11.7628063538 -3.53208190825
                                CHANNELS 3 Zrotation Yrotation Xrotation
                                JOINT RightShoulder
                                {
                                        OFFSET -9.83141868037 3.23715959223 -0.855834882774
                                        CHANNELS 3 Zrotation Yrotation Xrotation
                                        JOINT RightElbow
                                        {
                                                OFFSET -25.2613843825 -1.34048766853 -2.02949902171
                                                CHANNELS 3 Zrotation Yrotation Xrotation
                                                End RightWrist
                                                {
                                                        OFFSET -25.5042174894 0.66447471189 -0.668498318068
                                                }
                                        }
                                }
                            }
                        }
                }
            }
}
MOTION
Frames: 16
Frame Time: 0.0333333333333
0.00000 0.00000 0.00000 2.25141 -1.24194 1.97823 9.31505 4.29277 -16.65433 -9.44353 -7.25632 50.17284 -10.21544 26.67280 -23.21331 -7.55399 -6.09212 -28.73230 10.05875 8.25120 62.46407 21.63171 -23.32694 -26.21638 1.41943 -1.37958 14.11958 0.12684 0.55898 -8.55992 0.77906 1.26639 8.91384 1.39391 -1.80922 -5.26478 21.44594 5.02401 -11.58624 6.45098 1.55756 -17.37429 -1.87481 -22.44938 -9.37185 -21.73948 0.38149 -15.02434 -6.26012 6.11372 -19.16977 0.34263 13.56909 -10.67805
0.73475 0.35813 -0.02127 1.92271 -1.49787 1.90177 9.91649 5.00979 -17.00136 -9.03310 -6.93874 50.32424 -10.84074 27.23042 -23.03656 -7.18245 -6.20846 -29.98057 10.27584 7.71666 62.49410 20.61019 -22.98548 -28.22510 1.65030 -1.70405 14.47897 -0.21075 0.45384 -9.05937 0.75106 1.19384 9.04107 1.11504 -1.60806 -5.82820 22.35801 4.67756 -11.59465 6.15960 1.81919 -17.14601 -4.02139 -20.08043 -8.07755 -23.10782 0.29831 -15.19113 -5.63328 6.85576 -19.24743 1.81796 13.14284 -8.40152
1.69104 0.76995 -0.03054 1.77463 -0.89016 1.79238 9.50800 4.44115 -16.79164 -9.60658 -7.28544 50.93673 -10.28347 26.80456 -25.02689 -7.57061 -6.46332 -29.70176 10.31767 7.66638 62.96783 21.87120 -22.92393 -27.83504 1.72001 -1.54549 14.28592 -0.00157 0.63940 -8.24056 0.86354 1.17746 8.97371 1.22927 -1.31716 -5.27548 20.99564 4.58890 -11.60135 6.25766 1.54472 -17.28002 -1.91188 -22.83439 -8.45502 -21.91353 0.56309 -14.84015 -6.85492 5.51861 -19.57686 0.85972 14.09182 -9.73145
2.34459 0.18167 -0.03379 1.73325 -1.08984 2.41942 9.60485 4.57701 -17.60956 -9.70603 -7.14697 50.69806 -10.88974 27.20031 -26.14608 -7.47970 -6.17828 -30.41140 11.15001 8.27381 62.18377 22.21466 -22.78875 -28.90792 1.80420 -1.75665 14.60419 0.11155 0.55361 -8.85774 1.18775 1.08329 9.21792 1.70121 -1.57630 -6.77472 22.11284 4.57211 -11.78860 6.67822 2.71550 -17.39046 -3.26287 -21.15940 -10.52649 -23.06933 0.40381 -15.07760 -7.13748 5.52308 -19.35097 2.73784 15.41328 -10.00921
2.06292 0.11438 -0.01705 1.47158 -1.75423 2.21907 9.63860 5.03654 -16.87960 -9.87178 -6.83309 50.61976 -10.78579 26.86122 -24.34383 -8.02415 -6.20100 -31.32489 11.24728 8.15288 62.85685 21.97968 -22.49423 -27.46205 2.17488 -2.11597 14.38771 -0.25694 0.73161 -8.37562 0.70918 1.29894 9.31050 1.09372 -1.73258 -6.14505 22.72754 5.53064 -11.36701 5.01732 2.94996 -17.32893 -1.86607 -22.05450 -10.05297 -23.70376 -0.09437 -14.81622 -6.59179 5.63289 -20.24102 1.78619 13.93914 -10.89190
2.63382 -0.35808 0.02327 1.53486 -1.52640 2.70299 10.06546 5.29457 -18.11938 -11.10773 -6.66980 53.02408 -10.76412 26.02155 -24.32591 -7.94088 -6.48585 -30.86290 12.11958 8.87258 62.53832 22.01366 -21.31279 -27.71368 2.43602 -2.07271 14.54538 -0.22989 0.70778 -8.60750 0.76914 1.21729 9.30846 1.31974 -1.95652 -6.32064 21.72892 5.21904 -11.43055 4.27840 2.46392 -17.19942 -1.25715 -21.75640 -9.44905 -23.27556 0.30122 -14.84397 -7.00355 5.28180 -20.07869 2.75441 12.69557 -9.31448
2.07585 0.39518 0.00787 2.09959 -1.66885 2.52624 10.12587 4.88350 -20.36817 -10.73139 -4.62967 54.01407 -10.60757 26.23371 -25.08799 -7.91032 -5.90658 -31.24883 11.77106 8.87061 62.74639 22.92591 -21.92809 -27.29882 1.84926 -1.54745 14.83599 -0.42456 0.38198 -8.24716 0.31565 1.20554 9.28581 0.68373 -1.39021 -6.26873 20.89664 4.58111 -11.35713 5.93149 3.65270 -17.96881 -1.37141 -21.62254 -12.43791 -22.46589 0.29649 -14.49855 -7.35418 4.19972 -20.11249 0.78346 15.86406 -12.31289
2.81453 0.49073 0.03142 1.95818 -1.97417 2.00408 10.52737 4.61005 -23.01609 -10.73877 -3.74483 55.64912 -9.64684 26.14372 -24.01188 -7.35751 -5.72786 -31.73136 11.02101 8.71554 64.04948 21.81293 -22.51808 -25.41092 1.20274 -1.40361 15.93708 -0.17321 0.09174 -8.11792 0.44569 0.91166 9.21287 0.45346 -2.58119 -5.29391 20.36511 5.21957 -10.92296 5.01074 2.99868 -18.62422 0.80451 -22.89710 -14.25730 -22.13042 -0.27152 -14.31331 -6.88173 5.18337 -20.00611 -1.01717 14.92297 -11.17345
3.40800 0.16833 0.03289 1.94688 -1.55952 1.75457 10.15898 4.09093 -24.28586 -11.08199 -3.90885 56.86914 -8.09088 25.51121 -24.15351 -8.07633 -6.79929 -31.18725 10.86933 8.05180 64.66144 21.10697 -22.26514 -25.90307 1.43556 -1.13760 16.54554 -0.82189 0.44272 -8.66915 0.25233 0.92709 9.28364 -0.57123 -0.68449 -4.94129 19.63673 5.20385 -11.05686 4.41168 2.11197 -18.59928 0.81368 -24.86089 -14.95829 -22.09958 -1.19360 -14.18529 -5.87030 4.72564 -18.90095 -1.97125 17.35219 -13.11087
4.40277 0.75264 0.03972 1.86654 -1.57988 2.00835 10.74652 4.67786 -25.63335 -11.25057 -2.28979 58.01212 -8.26185 25.15449 -23.41651 -8.57205 -6.87679 -32.57615 10.71018 8.00692 64.99000 21.44527 -22.08253 -24.44810 1.52779 -0.97460 16.52197 -0.70212 0.55803 -8.80687 -0.13731 1.20195 9.46636 -1.50506 -1.61509 -3.96398 19.92878 6.44402 -10.82766 4.46886 1.04000 -20.02241 0.47608 -23.80730 -17.75242 -21.63743 -2.46550 -13.28280 -5.43918 4.56701 -18.30887 -2.35071 18.85254 -13.68300
5.68063 -1.17074 0.03329 1.30033 -1.19853 2.39170 11.32189 5.21593 -26.57785 -11.22644 -2.21052 58.83669 -8.37408 25.87318 -25.03992 -8.33562 -7.51146 -32.51047 10.81748 7.90165 65.04263 22.41551 -23.09861 -25.55153 0.82407 -0.77094 17.03883 -0.76377 0.28365 -9.16962 -0.04408 0.93581 9.66793 0.19992 -3.96072 -5.46821 19.51762 5.95577 -10.90551 4.72841 1.28950 -19.15188 -2.09140 -21.47163 -13.82773 -21.88551 -2.33683 -13.92988 -7.00560 3.36242 -20.18237 -1.74326 12.81713 -14.88277
6.69132 -1.54763 0.04460 0.85966 -1.55993 1.56848 11.07380 4.91070 -28.68851 -10.45702 -1.05976 61.92633 -7.11012 26.64555 -25.97257 -7.57204 -7.28043 -32.24571 9.76167 8.15540 65.98811 20.26704 -23.05990 -26.68135 0.73048 -0.38155 18.27955 -1.19266 0.74291 -9.87148 0.04047 1.21557 9.53535 -0.25877 -2.90224 -3.98363 17.76069 5.92982 -11.34886 5.48326 -0.20590 -19.17570 -1.11109 -22.28671 -13.15777 -21.41149 -2.05523 -13.50301 -7.85639 3.66234 -18.68770 0.25597 14.70604 -8.67215
6.96621 -2.38471 0.06685 1.06214 -0.23291 0.48073 11.15700 5.23892 -28.75472 -10.71968 -0.18758 62.56295 -6.68857 25.44668 -24.68482 -8.16305 -6.95758 -32.61036 9.45772 7.58123 68.03230 19.18260 -22.49716 -25.48408 0.60135 -1.04707 19.09522 -1.90829 0.53608 -9.24615 -0.82456 0.87029 9.42636 -1.12152 -3.55359 -2.49900 17.77798 6.54269 -9.97444 2.79020 0.02000 -18.12978 0.81502 -27.64898 -10.71772 -22.15397 -2.93968 -13.57062 -6.55027 4.02480 -19.77756 -2.65713 15.35192 -11.65624
7.77322 -2.39437 0.02831 0.23457 -0.12275 -1.39401 12.54208 5.60730 -31.12639 -10.47455 0.97738 65.38440 -6.96811 25.59271 -22.90283 -7.22790 -6.19047 -31.22577 9.64048 7.49498 68.51372 15.74447 -23.09706 -26.61777 0.25112 -1.16240 19.92706 -2.07921 -0.09864 -8.35941 -1.06580 0.17590 9.74467 -1.33360 -3.42341 0.24562 16.48244 6.24518 -9.04662 3.23505 1.45611 -17.68561 1.93175 -25.20019 -10.23758 -21.39337 -2.46478 -13.50432 -7.73353 4.45178 -20.50788 -0.87868 12.77102 -10.86581
7.30000 -3.45668 -0.02674 0.20403 0.44091 -1.44565 12.89527 5.57571 -30.26287 -9.71157 0.79638 63.66287 -6.17822 26.70108 -22.40147 -6.46197 -5.96282 -32.16640 10.28943 8.13052 68.36794 16.07866 -22.27848 -25.86129 0.04714 -1.32089 20.14573 -3.77350 0.60192 -7.75628 -2.01074 0.88215 9.62035 -2.82595 -2.07667 0.48728 15.38575 5.61706 -9.91877 5.40328 1.93643 -18.33849 0.84205 -23.21679 -9.92205 -21.45894 -1.89024 -12.59582 -9.99710 2.18227 -20.05168 1.24270 9.29419 -6.51933
7.40401 -4.46454 -0.08147 -0.88682 1.80668 -3.12402 14.56568 5.68130 -31.05542 -10.08958 1.32141 66.61186 -6.47230 26.80394 -24.14806 -6.31838 -6.16304 -32.21863 10.28150 6.95878 69.88096 14.00636 -21.95559 -27.12938 -0.77366 -1.44220 21.72015 -3.93273 0.18958 -7.36356 -1.96393 0.34040 9.77880 -3.10622 -3.10908 2.67801 14.02358 5.47520 -9.25362 6.08617 0.81169 -19.63241 0.99477 -23.84121 -18.01846 -21.09205 -3.09637 -11.62795 -9.95944 0.00770 -18.71596 2.06278 10.84896 -9.06201
